<?xml version="1.0" encoding="utf-8"?>
<!-- Svg Vector Icons : http://www.onlinewebfonts.com/icon -->
<!DOCTYPE svg PUBLIC "-//W3C//DTD SVG 1.1//EN" "http://www.w3.org/Graphics/SVG/1.1/DTD/svg11.dtd">
<svg version="1.1" xmlns="http://www.w3.org/2000/svg" xmlns:xlink="http://www.w3.org/1999/xlink" x="0px" y="0px" viewBox="0 0 1000 1000" enable-background="new 0 0 1000 1000" xml:space="preserve">
<metadata> Svg Vector Icons : http://www.onlinewebfonts.com/icon </metadata>
<g><g transform="translate(0.000000,511.000000) scale(0.100000,-0.100000)"><path d="M8874,974.9c-18.4-20.4-83.8-139-145.1-263.6l-114.5-226.9l-261.6-34.7c-161.5-22.5-275.9-49-296.4-69.5c-75.6-65.4-47-126.7,159.4-333.1l196.2-196.2l-47-280c-42.9-267.8-42.9-280-8.2-318.8c20.4-22.5,55.2-40.9,77.7-40.9c22.5,0,149.2,57.2,280,126.7l239.1,124.7l237.1-124.7c128.8-69.5,253.4-126.7,275.9-126.7c51.1,0,106.3,63.4,106.3,124.7c0,26.6-18.4,155.3-40.9,284.1l-40.9,233l204.4,208.5C9808,173.7,9900,284.1,9900,302.5c0,77.7-67.5,106.3-347.5,145.1l-271.8,36.8l-108.3,228.9c-59.3,126.7-122.6,243.2-141,263.6C8988.5,1019.9,8912.8,1019.9,8874,974.9z M9082.5,564.1l112.4-218.7l230.9-34.8c126.7-18.4,239.1-36.8,251.4-40.9c12.3-4.1-61.3-87.9-165.5-186L9325.7-96l42.9-233c22.5-128.8,40.9-243.2,40.9-255.5c0-12.3-102.2,32.7-226.9,98.1l-226.9,122.6l-237.1-124.7C8500-602.9,8483.6-609,8495.9-562c6.1,26.6,26.6,145.1,47,261.6l36.8,212.5l-186,177.8c-214.6,206.4-226.9,181.9,122.6,226.9l202.3,26.6l114.4,228.9c63.4,126.7,120.6,226.9,126.7,220.7C8966,786.9,9021.2,682.6,9082.5,564.1z"/><path d="M803,678.6c-67.4-136.9-124.7-251.4-126.7-253.4c-4.1-4.1-128.8-24.5-280-49.1C245,353.6,112.2,325,102,314.8c-14.3-14.3,49-89.9,190.1-233l210.5-210.5L459.6-372c-51.1-288.2-53.1-335.2-14.3-335.2c16.4,0,134.9,55.2,263.6,122.6c126.7,67.4,241.2,122.6,251.4,122.6c10.2,0,124.7-55.2,253.4-122.6c128.8-67.4,247.3-122.6,259.6-122.6c36.8,0,32.7,79.7-14.3,347.4l-42.9,233l210.5,210.5c149.2,149.2,202.3,216.6,188,230.9c-12.3,12.3-145.1,40.9-294.3,63.4c-151.2,22.5-275.9,40.9-278,45c-2,2.1-59.3,116.5-128.8,255.5C1036,833.9,976.7,927.9,958.3,927.9C937.9,927.9,880.7,833.9,803,678.6z"/><path d="M2805.9,678.6c-67.4-136.9-124.7-251.4-126.7-253.4c-4.1-4.1-128.8-24.5-280-49.1c-151.2-22.5-284.1-51.1-294.3-61.3c-14.3-14.3,49.1-89.9,190.1-233l210.5-210.5L2462.6-372c-51.1-288.2-53.1-335.2-14.3-335.2c16.4,0,134.9,55.2,263.7,122.6c126.7,67.4,241.2,122.6,251.4,122.6c10.2,0,124.7-55.2,253.4-122.6s247.3-122.6,259.6-122.6c36.8,0,32.7,79.7-14.3,347.4l-42.9,233l210.5,210.5c149.2,149.2,202.3,216.6,188,230.9c-12.3,12.3-145.1,40.9-294.3,63.4c-151.2,22.5-275.9,40.9-278,45c-2,2.1-59.3,116.5-128.8,255.5c-77.7,155.3-136.9,249.4-155.3,249.4C2940.8,927.9,2883.6,833.9,2805.9,678.6z"/><path d="M4829.3,672.4c-67.4-141-128.8-255.5-136.9-255.5c-94-4.1-545.7-83.8-564.1-102.2c-16.4-16.3,34.7-77.7,190.1-230.9l210.5-208.5L4485.9-372c-49-288.2-53.1-335.2-16.4-335.2c12.3,0,134.9,57.2,271.8,126.7l245.3,126.7l214.6-110.4c116.5-59.3,226.9-118.5,245.3-128.8c18.4-12.3,47-16.3,63.4-8.2c26.6,10.2,24.5,47-16.4,294.3l-49,282L5653,83.8c149.2,151.2,202.3,216.6,188,230.9c-12.3,12.3-145.1,40.9-294.3,63.4c-151.3,22.5-275.9,40.9-278,45c-2,2.1-59.3,116.5-128.8,255.5C5060.3,838,5003,927.9,4982.6,927.9C4962.1,927.9,4909,838,4829.3,672.4z"/><path d="M6793.4,672.4C6728,531.4,6664.6,417,6656.5,417c-81.7-2-551.8-87.9-568.2-104.2c-14.3-14.3,42.9-83.8,192.1-226.9L6493-120.6l-45-257.5c-51.1-298.4-51.1-329.1-16.3-329.1c12.3,0,134.9,57.2,269.8,126.7l247.3,126.7l251.4-128.8C7337.1-652,7461.7-705.1,7476-701c22.5,8.2,16.3,69.5-20.4,294.3l-49.1,282L7615,83.8c149.2,151.2,202.3,216.6,188,230.9c-12.3,12.3-145.1,40.9-294.3,63.4c-151.3,22.5-275.9,40.9-277.9,45c-2.1,2.1-59.3,116.5-128.8,255.5c-79.7,157.4-136.9,249.4-157.4,249.4S6871.1,835.9,6793.4,672.4z"/></g></g>
</svg>