<?xml version="1.0" encoding="utf-8"?>
<!-- Svg Vector Icons : http://www.onlinewebfonts.com/icon -->
<!DOCTYPE svg PUBLIC "-//W3C//DTD SVG 1.1//EN" "http://www.w3.org/Graphics/SVG/1.1/DTD/svg11.dtd">
<svg version="1.1" xmlns="http://www.w3.org/2000/svg" xmlns:xlink="http://www.w3.org/1999/xlink" x="0px" y="0px" viewBox="0 0 1000 1000" enable-background="new 0 0 1000 1000" xml:space="preserve">
<metadata> Svg Vector Icons : http://www.onlinewebfonts.com/icon </metadata>
<g><g transform="translate(0.000000,511.000000) scale(0.100000,-0.100000)"><path d="M6876.6,977.8c-14.6-14.6-77.3-131.6-140-257l-112.8-231.9l-242.4-35.5c-305-43.9-309.2-46-348.9-104.5c-43.9-66.9-25.1-96.1,198.5-317.5L6417-152.5l-46-263.3c-52.2-288.3-45.9-344.7,41.8-365.6c46-12.5,106.6,10.4,298.8,112.8l242.3,127.4L7190-664.3c259.1-137.9,321.7-150.4,367.7-77.3c27.1,41.8,27.1,77.3-14.6,323.8l-46,280l204.7,192.2c110.7,104.5,202.6,206.8,202.6,227.7c0,20.9-20.9,58.5-48,85.7c-37.6,37.6-94,52.2-307.1,83.6c-144.2,18.8-263.2,37.6-263.2,39.7c-2.1,2.1-56.4,112.8-121.2,244.4c-66.8,131.6-129.5,246.5-144.1,254.9C6981.1,1015.4,6907.9,1009.1,6876.6,977.8z M7077.2,570.4l114.9-227.7l173.4-23c96.1-14.6,208.9-31.3,252.8-37.6l81.5-12.5L7515.9,85.7L7330-100.3l43.9-250.7c23-137.9,39.7-250.7,35.5-250.7s-108.6,54.3-229.8,119.1L6956-363.5l-225.6-121.2c-259.1-137.9-244.4-150.4-185.9,169.2l37.6,211L6398.2,79.4c-102.4,100.3-181.8,185.9-179.7,188c2.1,4.2,119.1,20.9,257,41.8l252.8,35.5l112.8,225.6c60.6,125.4,114.9,227.7,117,227.7C6962.3,798.1,7014.5,695.7,7077.2,570.4z"/><path d="M8882.2,977.8c-14.6-14.6-77.3-131.6-140-257l-112.8-231.9l-242.4-35.5c-133.7-18.8-259.1-39.7-279.9-46c-52.2-14.6-98.2-94-85.7-144.2c6.3-23,98.2-123.3,204.8-221.5L8420.5-140l-46-269.5c-48-296.7-41.8-351,43.9-371.9c46-12.5,106.6,10.4,298.8,112.8l242.3,127.4l242.3-127.4c192.2-100.3,252.8-125.4,298.8-112.8c89.8,23,96.1,79.4,43.9,374l-46,267.4l192.2,181.8c221.4,206.8,244.4,252.8,173.4,323.8c-39.7,39.7-94,54.3-309.2,85.7c-144.2,18.8-261.2,37.6-263.2,39.7c-2.1,2.1-58.5,112.8-123.3,244.4c-66.9,131.6-131.6,246.5-144.2,254.9C8986.7,1015.4,8913.5,1009.1,8882.2,977.8z M9084.9,562c117-240.3,79.4-217.3,436.7-265.3l183.8-25.1L9521.5,85.7L9337.6-98.2l35.5-225.6c20.9-123.3,35.5-238.2,35.5-252.8c0-16.7-85.7,18.8-223.5,91.9l-223.5,121.2L8736-482.6c-261.2-140-246.5-152.5-185.9,173.4l35.5,198.5L8399.6,79.4l-185.9,192.2l183.8,25.1c359.3,50.1,317.6,23,442.9,279.9c60.6,125.4,117,221.5,125.4,213.1C8974.1,781.4,9028.4,679,9084.9,562z"/><path d="M809.6,672.7C721.9,486.8,678,417.8,646.7,411.6c-25.1-4.2-152.5-25.1-284.1-43.9C230.9,351,114,325.9,101.4,315.5c-12.5-12.5,58.5-98.2,192.2-234l211-213.1L467-361.4c-23-125.4-46-250.7-52.2-277.9c-20.9-87.8,48-75.2,302.9,56.4l248.6,129.5l238.2-127.4c221.5-117,307.1-148.3,307.1-108.6c0,8.4-20.9,140-46,294.6l-46,282l204.7,194.3C1745.6,196.4,1825,288.3,1818.7,305c-6.3,16.7-98.2,39.7-259.1,62.7c-135.8,20.9-263.2,41.8-284.1,48.1c-23,6.3-85.7,104.5-158.8,252.8c-71,146.2-133.7,246.5-154.6,250.7C935,925.5,897.4,864.9,809.6,672.7z"/><path d="M2813.1,679c-64.8-135.8-125.3-250.7-135.8-257c-8.4-6.3-135.8-29.2-282-50.1C2247,353.1,2119.6,328,2107,315.5c-12.5-12.5,56.4-96.1,192.2-234l211-213.1l-48-271.6c-27.2-148.3-43.9-277.9-39.7-286.2c18.8-31.3,56.4-16.7,302.9,108.6l246.5,125.4l238.2-125.4c221.5-117,307.1-148.3,307.1-108.6c0,8.4-20.9,140-46,292.5l-46,277.9l206.8,206.8c131.6,131.6,200.6,215.2,188,227.7c-12.5,10.4-129.5,35.5-261.1,54.3c-131.6,18.8-257,37.6-277.9,43.9c-20.9,6.3-87.7,112.8-160.9,261.1c-79.4,156.7-137.9,248.6-158.8,248.6S2888.4,835.7,2813.1,679z"/><path d="M4829.2,668.5l-131.6-257L4426,374c-148.3-20.9-279.9-48.1-292.5-58.5c-12.5-12.5,56.4-96.1,192.2-234l208.9-213.1l-48.1-271.6c-31.3-177.6-39.7-277.9-27.2-292.5c12.5-12.5,108.6,23,277.9,110.7l259.1,129.5l238.2-125.4c273.7-144.2,319.6-154.6,302.9-66.9c-6.3,31.3-27.2,162.9-48.1,292.5l-37.6,236.1l206.8,206.8c129.5,131.6,200.6,215.2,188,227.7c-12.5,10.4-123.3,33.4-250.7,52.2c-125.4,18.8-250.7,39.7-277.9,43.9c-35.5,8.4-77.3,71-171.3,261.1c-75.2,148.3-137.9,250.7-156.7,250.7C4973.4,923.4,4906.5,819,4829.2,668.5z"/></g></g>
</svg>