<?xml version="1.0" encoding="utf-8"?>
<!-- Svg Vector Icons : http://www.onlinewebfonts.com/icon -->
<!DOCTYPE svg PUBLIC "-//W3C//DTD SVG 1.1//EN" "http://www.w3.org/Graphics/SVG/1.1/DTD/svg11.dtd">
<svg version="1.1" xmlns="http://www.w3.org/2000/svg" xmlns:xlink="http://www.w3.org/1999/xlink" x="0px" y="0px" viewBox="0 0 1000 1000" enable-background="new 0 0 1000 1000" xml:space="preserve">
<metadata> Svg Vector Icons : http://www.onlinewebfonts.com/icon </metadata>
<g><g transform="translate(0.000000,511.000000) scale(0.100000,-0.100000)"><path d="M4909,974.9c-18.4-20.4-83.8-139-145.1-263.7l-114.5-226.9l-261.6-34.7c-161.5-22.5-275.9-49.1-296.4-69.5c-75.6-65.4-47-126.7,159.4-333.1l196.2-196.2l-47-280c-42.9-267.7-42.9-280-8.2-318.8c20.4-22.5,55.2-40.9,77.7-40.9c22.5,0,147.2,57.2,278,126.7l239.1,126.7l237.1-126.7c130.8-69.5,255.5-126.7,278-126.7c53.1,0,106.3,63.3,106.3,126.7c0,26.6-18.4,153.3-40.9,282.1l-42.9,230.9l206.4,210.5C5908.4,239.1,5937,278,5924.8,318.8c-22.5,77.7-59.3,89.9-339.3,128.8l-267.7,36.8l-120.6,245.3c-65.4,134.9-130.8,253.4-145.1,263.7C5007.1,1019.9,4941.7,1011.7,4909,974.9z M5117.5,564.1l112.4-218.7l243.2-34.7c134.9-20.4,247.3-40.9,251.4-45c4.1-4.1-75.6-85.8-177.8-179.9l-186-173.7l42.9-251.4c22.5-137,38.8-253.4,36.8-257.5c-4.1-2.1-106.3,49-228.9,114.5l-224.8,118.5l-233-122.6l-233-124.7l12.3,59.3c6.1,32.7,26.6,151.3,45,263.7l34.7,204.4L4424.6,92c-214.6,202.3-228.9,177.8,126.7,224.8l202.3,26.6l114.4,228.9c63.4,126.7,120.6,226.9,126.7,220.7C5001,786.9,5056.2,682.6,5117.5,564.1z"/><path d="M6871.1,974.9c-18.4-20.4-83.8-139-145.1-263.7l-114.5-226.9l-261.6-34.7c-161.4-22.5-275.9-49.1-296.3-69.5c-75.6-65.4-47-126.7,159.4-333.1l196.2-196.2l-47-280c-42.9-267.7-42.9-280-8.2-318.8c20.4-22.5,55.2-40.9,77.7-40.9c22.5,0,149.2,57.2,280,126.7l239.1,124.7l237.1-124.7c130.8-69.5,255.5-126.7,275.9-126.7c53.2,0,106.3,63.3,106.3,124.7c0,26.6-18.4,155.3-40.9,284.1l-40.9,233l206.4,210.5c175.8,177.8,204.4,214.6,192.1,255.5c-22.5,77.7-59.3,89.9-339.3,128.8l-269.8,36.8l-108.3,228.9c-59.3,126.7-122.6,243.2-141,263.7C6985.5,1019.9,6909.9,1019.9,6871.1,974.9z M7079.5,564.1l112.4-218.7l243.2-34.7c134.9-20.4,247.3-38.8,251.4-42.9c4.1-6.1-75.6-87.9-177.8-186L7322.8-94l40.9-235c24.5-128.8,42.9-243.2,42.9-255.5c0-12.3-102.2,32.7-228.9,100.1l-226.9,120.6l-235-124.7c-218.7-114.4-235-120.6-222.8-73.6c6.1,26.6,26.6,145.1,47,261.6l36.8,212.5L6386.7,94c-104.2,98.1-183.9,179.9-177.8,179.9c22.5,0,431.2,61.3,472.1,71.5c28.6,6.1,75.6,77.7,153.3,233c61.3,124.7,114.5,220.7,120.6,214.6C6963,786.9,7018.2,682.6,7079.5,564.1z"/><path d="M8874,974.9c-18.4-20.4-83.8-139-145.1-263.7l-114.5-226.9l-261.6-34.7c-161.5-22.5-275.9-49.1-296.4-69.5c-75.6-65.4-47-126.7,159.4-333.1l196.2-196.2l-47-280c-42.9-267.7-42.9-280-8.2-318.8c20.4-22.5,55.2-40.9,77.7-40.9c22.5,0,147.2,57.2,278,126.7l239.1,126.7l237.1-126.7c130.8-69.5,255.5-126.7,278-126.7c51.1,0,106.3,63.3,106.3,124.7c0,26.6-18.4,155.3-40.9,284.1l-40.9,233l204.4,208.5C9808,173.7,9900,284.1,9900,302.5c0,77.7-67.5,106.3-347.5,145.1l-271.8,36.8l-108.3,228.9c-59.3,126.7-122.6,243.2-141,263.7C8988.5,1019.9,8912.8,1019.9,8874,974.9z M9082.5,564.1l112.4-218.7l230.9-34.7c126.7-18.4,239.1-36.8,251.4-40.9c12.3-4.1-61.3-87.9-165.5-186l-186-179.9l42.9-233c22.5-128.8,40.9-243.2,40.9-255.5c0-12.3-102.2,32.7-226.9,98.1l-226.9,122.6l-237.1-124.7c-218.7-114.4-235-120.6-222.8-73.6c6.1,26.6,26.6,145.1,47,261.6l36.8,212.5l-186,177.8c-214.6,206.4-226.9,181.9,122.6,226.9l202.3,26.6l114.4,228.9c63.4,126.7,120.6,226.9,126.7,220.7C8966,786.9,9021.2,682.6,9082.5,564.1z"/><path d="M803,678.5c-69.5-139-126.7-253.4-128.8-255.5c-2-2-126.7-22.5-278-47C245,353.6,112.2,325,102,314.8c-14.3-14.3,49-89.9,190.1-233l210.5-210.5L459.6-372c-51.1-288.2-53.1-335.2-14.3-335.2c16.4,0,134.9,55.2,263.6,122.6c126.7,67.4,241.2,122.6,251.4,122.6c10.2,0,124.7-55.2,253.4-122.6c128.8-67.5,247.3-122.6,259.6-122.6c36.8,0,32.7,79.7-14.3,347.4l-42.9,233l210.5,210.5c149.2,149.2,202.3,216.6,188,231c-12.3,12.3-145.1,40.9-294.3,63.4c-151.2,22.5-275.9,40.9-278,45c-2,2.1-59.3,116.5-128.8,255.5C1038,829.8,976.7,927.9,958.3,927.9C939.9,927.9,878.6,829.8,803,678.5z"/><path d="M2805.9,678.5c-67.4-136.9-124.7-251.4-126.7-253.4c-4.1-4.1-128.8-24.5-280-49.1c-151.2-22.5-284.1-51.1-294.3-61.3c-14.3-14.3,49.1-89.9,190.1-233l210.5-210.5L2462.6-372c-51.1-288.2-53.1-335.2-14.3-335.2c16.4,0,134.9,55.2,263.7,122.6c126.7,67.4,241.2,122.6,251.4,122.6c10.2,0,124.7-55.2,253.4-122.6c128.8-67.5,247.3-122.6,259.6-122.6c36.8,0,32.7,79.7-14.3,347.4l-42.9,233l210.5,210.5c149.2,149.2,202.3,216.6,188,231c-12.3,12.3-145.1,40.9-294.3,63.4c-151.2,22.5-275.9,40.9-278,45c-2,2.1-59.3,116.5-128.8,255.5c-77.7,155.3-136.9,249.3-155.3,249.3C2940.8,927.9,2883.6,833.9,2805.9,678.5z"/></g></g>
</svg>