<?xml version="1.0" encoding="utf-8"?>
<!-- Svg Vector Icons : http://www.onlinewebfonts.com/icon -->
<!DOCTYPE svg PUBLIC "-//W3C//DTD SVG 1.1//EN" "http://www.w3.org/Graphics/SVG/1.1/DTD/svg11.dtd">
<svg version="1.1" xmlns="http://www.w3.org/2000/svg" xmlns:xlink="http://www.w3.org/1999/xlink" x="0px" y="0px" viewBox="0 0 1000 1000" enable-background="new 0 0 1000 1000" xml:space="preserve">
<metadata> Svg Vector Icons : http://www.onlinewebfonts.com/icon </metadata>
<g><g transform="translate(0.000000,511.000000) scale(0.100000,-0.100000)"><path d="M2873,956.2c-20.9-25-83.5-141.9-139.8-258.8l-102.3-208.7l-242.1-35.5c-269.2-37.6-333.9-60.5-361.1-133.6c-14.6-43.8,6.3-73,189.9-260.9L2424.3-152l-39.6-219.1c-23-121-37.6-256.7-35.5-302.6c6.3-70.9,14.6-85.6,66.8-104.4c52.2-18.8,87.7-6.3,302.6,108.5l244.2,129.4l235.8-125.2c256.7-135.7,319.3-148.2,365.2-75.1c27.1,41.7,27.1,75.1-14.6,323.5l-43.8,275.5l202.4,194.1c135.7,129.4,202.4,206.6,202.4,237.9c0,83.5-83.5,121-359,160.7c-139.8,20.9-256.7,37.6-258.8,39.6c-2.1,2.1-52.2,108.5-110.6,233.8c-60.5,127.3-123.1,242.1-141.9,256.7C2985.7,1020.9,2914.7,1010.5,2873,956.2z M3083.8,570.1l114.8-227.5l173.2-23c96-14.6,208.7-31.3,252.5-37.6l81.4-12.5L3522.1,85.9L3340.5-97.7l41.7-250.4c22.9-139.8,37.6-252.5,35.5-252.5c-4.2,0-106.5,54.3-229.6,119l-225.4,119l-225.4-121c-137.7-73-225.4-108.5-225.4-91.8c0,14.6,18.8,129.4,39.7,254.6l39.6,227.5L2405.5,83.8c-102.3,98.1-183.7,179.5-181.6,183.7c4.2,2.1,121,20.9,258.8,41.7l252.5,35.5L2848,570.1c60.5,125.2,114.8,227.5,116.9,227.5C2969,797.6,3021.2,695.4,3083.8,570.1z"/><path d="M4907.8,977.1c-14.6-14.6-77.2-131.5-139.8-256.7l-112.7-231.7l-242.1-35.5c-304.7-43.8-308.9-45.9-348.5-104.4c-43.8-66.8-27.1-89.7,196.2-308.9l185.8-181.6l-45.9-269.2c-50.1-294.3-41.7-348.5,45.9-369.4c45.9-12.5,104.4,10.4,298.4,112.7l242.1,127.3l233.7-125.2c258.8-135.7,321.4-148.2,367.3-75.1c27.1,41.7,27.1,77.2-14.6,323.5l-43.8,277.6l202.4,192c212.9,202.4,235.8,248.4,160.7,317.2c-41.7,37.6-102.3,52.2-398.6,93.9l-181.6,25l-106.4,227.5c-60.5,125.2-123.1,242.1-139.8,258.8C5026.8,1014.7,4945.4,1014.7,4907.8,977.1z M5108.2,570.1L5223,342.7l173.2-23c96-14.6,208.7-31.3,252.5-37.6l81.4-12.5L5546.5,85.9L5360.7-99.8l43.8-250.4c22.9-137.7,39.6-250.4,35.5-250.4c-4.2,0-108.5,54.3-229.6,119l-223.3,119l-225.4-121c-137.7-73-225.4-108.5-225.4-91.8c0,14.6,16.7,127.3,39.7,252.5l37.6,223.3L4429.9,81.8c-102.3,100.2-183.7,183.7-179.5,185.7c2.1,2.1,119,20.9,256.7,41.7l252.5,35.5l112.7,225.4c60.5,125.2,114.8,227.5,116.9,227.5C4993.4,797.6,5045.6,695.4,5108.2,570.1z"/><path d="M6869.6,977.1c-14.6-14.6-77.2-131.5-139.8-256.7l-112.7-231.7L6375,455.3c-269.2-39.7-333.9-62.6-361-135.7c-14.6-43.8,6.3-73,189.9-260.9L6410.5-152l-39.6-219.1c-23-121-37.6-256.7-35.5-302.6c6.3-68.9,14.6-85.6,64.7-104.4c54.3-16.7,89.7-4.2,304.7,108.5l244.2,129.4l233.8-125.2c258.8-135.7,321.4-148.2,367.3-75.1c27.1,41.7,27.1,75.1-14.6,323.5l-43.8,275.5L7694,52.5c135.7,129.4,202.4,206.6,202.4,237.9c0,83.5-83.5,121-359,160.7c-139.8,20.9-258.8,37.6-260.9,39.6c-2.1,4.2-52.2,108.5-110.6,233.8c-58.4,127.3-121,242.1-139.8,256.7C6980.2,1014.7,6905.1,1012.6,6869.6,977.1z M7070,570.1l114.8-227.5l173.2-23c96-14.6,208.7-31.3,252.5-37.6l81.4-12.5L7508.3,85.9L7324.6-99.8l41.7-250.4c25-137.7,39.7-250.4,35.5-250.4s-108.5,54.3-229.6,119l-223.3,119l-225.4-121c-137.7-73-225.4-108.5-225.4-91.8c0,14.6,16.7,127.3,39.7,252.5l37.6,223.3L6391.7,81.8c-102.3,100.2-183.7,183.7-179.5,185.7c2.1,2.1,119,20.9,256.7,41.7l252.5,35.5l112.7,225.4c60.5,125.2,114.8,227.5,116.9,227.5C6955.2,797.6,7007.4,695.4,7070,570.1z"/><path d="M8873.2,977.1c-14.6-14.6-77.2-131.5-139.8-256.7l-112.7-231.7l-242.1-35.5c-304.7-43.8-308.9-45.9-348.5-104.4c-43.8-66.8-27.1-89.7,196.2-308.9L8412-141.6L8366-410.8c-50.1-294.3-41.7-348.5,45.9-369.4c45.9-12.5,104.4,10.4,298.4,112.7l242.1,127.3l233.8-125.2c258.8-135.7,321.4-148.2,367.3-75.1c27.1,41.7,27.1,77.2-14.6,323.5l-43.8,277.6l202.4,192C9808.2,159,9900,259.2,9900,277.9c0,18.8-16.7,56.3-37.6,81.4c-37.6,48-87.7,60.5-402.8,104.3l-181.6,25l-106.4,227.5c-60.5,125.2-123.1,242.1-139.8,258.8C8992.1,1014.7,8910.7,1014.7,8873.2,977.1z M9073.5,570.1l114.8-227.5l173.2-23c96-14.6,208.7-31.3,252.5-37.6l81.4-12.5L9511.8,85.9L9326.1-99.8l43.8-250.4c23-137.7,39.7-250.4,35.5-250.4s-108.5,54.3-229.6,119l-223.3,119l-225.4-119c-258.8-137.7-244.2-152.4-185.7,167l37.6,210.8L8395.3,79.7c-102.3,100.2-181.6,185.7-179.5,187.8c2.1,4.2,119,20.9,256.7,41.7l252.5,35.5l112.7,225.4c60.5,125.2,114.8,227.5,116.9,227.5C8958.8,797.6,9010.9,695.4,9073.5,570.1z"/><path d="M806.9,678.6C742.2,543,681.6,428.2,673.3,421.9c-10.4-6.3-137.8-29.2-283.8-50.1c-148.2-18.8-275.5-43.8-288-56.3c-12.5-12.5,56.4-96,192-233.7l210.8-212.9l-48-271.3c-27.1-148.2-43.8-277.6-39.6-285.9c20.9-31.3,64.7-14.6,304.7,108.5l244.2,127.3l237.9-127.3c221.2-116.9,306.8-148.2,306.8-108.5c0,8.3-20.9,139.8-45.9,292.2l-45.9,277.6L1625,88c129.4,131.5,200.4,215,187.8,227.5c-12.5,10.4-123.1,33.4-250.4,52.2c-125.2,18.8-250.4,39.7-277.6,43.8c-35.5,8.3-77.2,71-171.1,260.9C1034.4,831,975.9,922.8,955,922.8C934.2,922.8,882,837.3,806.9,678.6z"/></g></g>
</svg>